<svg xmlns="http://www.w3.org/2000/svg" width="500" height="500">
    <circle cx="112.735" cy="403.452" r="71.029" fill="#4361ff"/>
    <circle cx="112.735" cy="401.436" r="71.029" fill="#4362fe"/>
    <circle cx="112.735" cy="399.421" r="71.029" fill="#4263fd"/>
    <circle cx="112.735" cy="397.405" r="71.029" fill="#4264fc"/>
    <circle cx="112.735" cy="395.39" r="71.029" fill="#4265fb"/>
    <circle cx="112.735" cy="393.374" r="71.029" fill="#4266fa"/>
    <circle cx="112.735" cy="391.359" r="71.029" fill="#4167fa"/>
    <circle cx="112.735" cy="389.343" r="71.029" fill="#4168f9"/>
    <circle cx="112.735" cy="387.328" r="71.029" fill="#4169f8"/>
    <circle cx="112.735" cy="385.312" r="71.029" fill="#416af7"/>
    <circle cx="112.735" cy="383.297" r="71.029" fill="#406bf6"/>
    <circle cx="112.735" cy="381.281" r="71.029" fill="#406cf5"/>
    <circle cx="112.735" cy="379.266" r="71.029" fill="#406df4"/>
    <circle cx="112.735" cy="377.25" r="71.029" fill="#406ef3"/>
    <circle cx="112.735" cy="375.235" r="71.029" fill="#3f6ff2"/>
    <circle cx="112.735" cy="373.219" r="71.029" fill="#3f70f1"/>
    <circle cx="112.735" cy="371.204" r="71.029" fill="#3f71f0"/>
    <circle cx="112.735" cy="369.189" r="71.029" fill="#3f72f0"/>
    <circle cx="112.735" cy="367.173" r="71.029" fill="#3e73ef"/>
    <circle cx="112.735" cy="365.158" r="71.029" fill="#3e74ee"/>
    <circle cx="112.735" cy="363.142" r="71.029" fill="#3e75ed"/>
    <circle cx="112.735" cy="361.127" r="71.029" fill="#3e76ec"/>
    <circle cx="112.735" cy="359.111" r="71.029" fill="#3d77eb"/>
    <circle cx="112.735" cy="357.096" r="71.029" fill="#3d78ea"/>
    <circle cx="112.735" cy="355.08" r="71.029" fill="#3d79e9"/>
    <circle cx="112.735" cy="353.065" r="71.029" fill="#3d7ae8"/>
    <circle cx="112.735" cy="351.049" r="71.029" fill="#3c7be7"/>
    <circle cx="112.735" cy="349.034" r="71.029" fill="#3c7ce6"/>
    <circle cx="112.735" cy="347.018" r="71.029" fill="#3c7de6"/>
    <circle cx="112.735" cy="345.003" r="71.029" fill="#3c7ee5"/>
    <circle cx="112.735" cy="342.987" r="71.029" fill="#3b7fe4"/>
    <circle cx="112.735" cy="340.972" r="71.029" fill="#3b80e3"/>
    <circle cx="112.735" cy="338.956" r="71.029" fill="#3b81e2"/>
    <circle cx="112.735" cy="336.941" r="71.029" fill="#3b82e1"/>
    <circle cx="112.735" cy="334.925" r="71.029" fill="#3a83e0"/>
    <circle cx="112.735" cy="332.91" r="71.029" fill="#3a84df"/>
    <circle cx="112.735" cy="330.894" r="71.029" fill="#3a85de"/>
    <circle cx="112.735" cy="328.879" r="71.029" fill="#3a86dd"/>
    <circle cx="112.735" cy="326.863" r="71.029" fill="#3987dc"/>
    <circle cx="112.735" cy="324.848" r="71.029" fill="#3988dc"/>
    <circle cx="112.735" cy="322.832" r="71.029" fill="#3989db"/>
    <circle cx="112.735" cy="320.817" r="71.029" fill="#388ada"/>
    <circle cx="112.735" cy="318.801" r="71.029" fill="#388bd9"/>
    <circle cx="112.735" cy="316.786" r="71.029" fill="#388cd8"/>
    <circle cx="112.735" cy="314.771" r="71.029" fill="#388dd7"/>
    <circle cx="112.735" cy="312.755" r="71.029" fill="#378ed6"/>
    <circle cx="112.735" cy="310.74" r="71.029" fill="#378fd5"/>
    <circle cx="112.735" cy="308.724" r="71.029" fill="#3790d4"/>
    <circle cx="112.735" cy="306.709" r="71.029" fill="#3791d3"/>
    <circle cx="112.735" cy="304.693" r="71.029" fill="#3692d3"/>
    <circle cx="112.735" cy="302.678" r="71.029" fill="#3693d2"/>
    <circle cx="112.735" cy="300.662" r="71.029" fill="#3694d1"/>
    <circle cx="112.735" cy="298.647" r="71.029" fill="#3695d0"/>
    <circle cx="112.735" cy="296.631" r="71.029" fill="#3596cf"/>
    <circle cx="112.735" cy="294.616" r="71.029" fill="#3597ce"/>
    <circle cx="112.735" cy="292.6" r="71.029" fill="#3598cd"/>
    <circle cx="112.735" cy="290.585" r="71.029" fill="#3599cc"/>
    <circle cx="112.735" cy="288.569" r="71.029" fill="#349acb"/>
    <circle cx="112.735" cy="286.554" r="71.029" fill="#349bca"/>
    <circle cx="112.735" cy="284.538" r="71.029" fill="#349cc9"/>
    <circle cx="112.735" cy="282.523" r="71.029" fill="#349dc9"/>
    <circle cx="112.735" cy="280.507" r="71.029" fill="#339ec8"/>
    <circle cx="112.735" cy="278.492" r="71.029" fill="#339fc7"/>
    <circle cx="112.735" cy="276.476" r="71.029" fill="#33a0c6"/>
    <circle cx="112.735" cy="274.461" r="71.029" fill="#33a1c5"/>
    <circle cx="112.735" cy="272.445" r="71.029" fill="#32a2c4"/>
    <circle cx="112.735" cy="270.43" r="71.029" fill="#32a3c3"/>
    <circle cx="112.735" cy="268.414" r="71.029" fill="#32a4c2"/>
    <circle cx="112.735" cy="266.399" r="71.029" fill="#32a5c1"/>
    <circle cx="112.735" cy="264.383" r="71.029" fill="#31a6c0"/>
    <circle cx="112.735" cy="262.368" r="71.029" fill="#31a7bf"/>
    <circle cx="112.735" cy="260.353" r="71.029" fill="#31a8bf"/>
    <circle cx="112.735" cy="258.337" r="71.029" fill="#31a9be"/>
    <circle cx="112.735" cy="256.322" r="71.029" fill="#30aabd"/>
    <circle cx="112.735" cy="254.306" r="71.029" fill="#30abbc"/>
    <circle cx="112.735" cy="252.291" r="71.029" fill="#30acbb"/>
    <circle cx="112.735" cy="250.275" r="71.029" fill="#30adba"/>
    <circle cx="112.735" cy="248.26" r="71.029" fill="#2faeb9"/>
    <circle cx="112.735" cy="246.244" r="71.029" fill="#2fafb8"/>
    <circle cx="112.735" cy="244.229" r="71.029" fill="#2fb0b7"/>
    <circle cx="112.735" cy="242.213" r="71.029" fill="#2eb1b6"/>
    <circle cx="112.735" cy="240.198" r="71.029" fill="#2eb2b5"/>
    <circle cx="112.735" cy="238.182" r="71.029" fill="#2eb3b5"/>
    <circle cx="112.735" cy="236.167" r="71.029" fill="#2eb4b4"/>
    <circle cx="112.735" cy="234.151" r="71.029" fill="#2db5b3"/>
    <circle cx="112.735" cy="232.136" r="71.029" fill="#2db6b2"/>
    <circle cx="112.735" cy="230.12" r="71.029" fill="#2db7b1"/>
    <circle cx="112.735" cy="228.105" r="71.029" fill="#2db8b0"/>
    <circle cx="112.735" cy="226.089" r="71.029" fill="#2cb9af"/>
    <circle cx="112.735" cy="224.074" r="71.029" fill="#2cbaae"/>
    <circle cx="112.735" cy="222.058" r="71.029" fill="#2cbbad"/>
    <circle cx="112.735" cy="220.043" r="71.029" fill="#2cbcac"/>
    <circle cx="112.735" cy="218.027" r="71.029" fill="#2bbdab"/>
    <circle cx="112.735" cy="216.012" r="71.029" fill="#2bbeab"/>
    <circle cx="112.735" cy="213.996" r="71.029" fill="#2bbfaa"/>
    <circle cx="112.735" cy="211.981" r="71.029" fill="#2bc0a9"/>
    <circle cx="112.735" cy="209.965" r="71.029" fill="#2ac1a8"/>
    <circle cx="112.735" cy="207.95" r="71.029" fill="#2ac2a7"/>
    <circle cx="112.735" cy="205.935" r="71.029" fill="#2ac3a6"/>
    <circle cx="112.735" cy="203.919" r="71.029" fill="#2ac4a5"/>
    <circle cx="112.735" cy="201.904" r="71.029" fill="#29c5a4"/>
    <circle cx="112.735" cy="199.888" r="71.029" fill="#29c6a3"/>
    <circle cx="112.735" cy="197.873" r="71.029" fill="#29c7a2"/>
    <circle cx="112.735" cy="195.857" r="71.029" fill="#29c8a1"/>
    <circle cx="112.735" cy="193.842" r="71.029" fill="#28c9a1"/>
    <circle cx="112.735" cy="191.826" r="71.029" fill="#28caa0"/>
    <circle cx="112.735" cy="189.811" r="71.029" fill="#28cb9f"/>
    <circle cx="112.735" cy="187.795" r="71.029" fill="#28cc9e"/>
    <circle cx="112.735" cy="185.78" r="71.029" fill="#27cd9d"/>
    <circle cx="112.735" cy="183.764" r="71.029" fill="#27ce9c"/>
    <circle cx="112.735" cy="181.749" r="71.029" fill="#27cf9b"/>
    <circle cx="112.735" cy="179.733" r="71.029" fill="#27d09a"/>
    <circle cx="112.735" cy="177.718" r="71.029" fill="#26d199"/>
    <circle cx="112.735" cy="175.702" r="71.029" fill="#26d298"/>
    <circle cx="112.735" cy="173.687" r="71.029" fill="#26d398"/>
    <circle cx="112.735" cy="171.671" r="71.029" fill="#25d497"/>
    <circle cx="112.735" cy="169.656" r="71.029" fill="#25d596"/>
    <circle cx="112.735" cy="167.64" r="71.029" fill="#25d695"/>
    <circle cx="112.735" cy="165.625" r="71.029" fill="#25d794"/>
    <circle cx="112.735" cy="163.609" r="71.029" fill="#24d893"/>
    <circle cx="112.735" cy="161.594" r="71.029" fill="#24d992"/>
    <circle cx="112.735" cy="159.578" r="71.029" fill="#24da91"/>
    <circle cx="112.735" cy="157.563" r="71.029" fill="#24db90"/>
    <circle cx="112.735" cy="155.547" r="71.029" fill="#23dc8f"/>
    <circle cx="112.735" cy="153.532" r="71.029" fill="#23dd8e"/>
    <circle cx="112.735" cy="151.517" r="71.029" fill="#23de8e"/>
    <circle cx="112.735" cy="149.501" r="71.029" fill="#23df8d"/>
    <circle cx="112.735" cy="147.486" r="71.029" fill="#22e08c"/>
    <circle cx="112.735" cy="145.47" r="71.029" fill="#22e18b"/>
    <circle cx="112.735" cy="143.455" r="71.029" fill="#22e28a"/>
    <circle cx="112.735" cy="141.439" r="71.029" fill="#22e389"/>
    <circle cx="112.735" cy="139.424" r="71.029" fill="#21e488"/>
    <circle cx="112.735" cy="137.408" r="71.029" fill="#21e587"/>
    <circle cx="112.735" cy="135.393" r="71.029" fill="#21e686"/>
    <circle cx="112.735" cy="133.377" r="71.029" fill="#21e785"/>
    <circle cx="112.735" cy="131.362" r="71.029" fill="#20e884"/>
    <circle cx="112.735" cy="129.346" r="71.029" fill="#20e984"/>
    <circle cx="112.735" cy="127.331" r="71.029" fill="#20ea83"/>
    <circle cx="112.735" cy="125.315" r="71.029" fill="#20eb82"/>
    <circle cx="112.735" cy="123.3" r="71.029" fill="#1fec81"/>
    <circle cx="112.735" cy="121.284" r="71.029" fill="#1fed80"/>
    <circle cx="112.735" cy="119.269" r="71.029" fill="#1fee7f"/>
    <circle cx="112.735" cy="117.253" r="71.029" fill="#1fef7e"/>
    <circle cx="112.735" cy="115.238" r="71.029" fill="#1ef07d"/>
    <circle cx="112.735" cy="113.222" r="71.029" fill="#1ef17c"/>
    <circle cx="112.735" cy="111.207" r="71.029" fill="#1ef27b"/>
    <circle cx="112.735" cy="109.191" r="71.029" fill="#1ef37a"/>
    <circle cx="112.735" cy="107.176" r="71.029" fill="#1df47a"/>
    <circle cx="112.735" cy="105.16" r="71.029" fill="#1df579"/>
    <circle cx="112.735" cy="103.145" r="71.029" fill="#1df678"/>
    <circle cx="112.735" cy="101.129" r="71.029" fill="#1df777"/>
    <circle cx="112.735" cy="99.114" r="71.029" fill="#1cf876"/>
    <circle cx="112.735" cy="97.099" r="71.029" fill="#1cf975"/>
    <circle cx="113.943" cy="98.448" r="71.029" fill="#1df975"/>
    <circle cx="115.151" cy="99.798" r="71.029" fill="#1ef974"/>
    <circle cx="116.359" cy="101.147" r="71.029" fill="#1ff974"/>
    <circle cx="117.567" cy="102.497" r="71.029" fill="#20f874"/>
    <circle cx="118.775" cy="103.846" r="71.029" fill="#21f873"/>
    <circle cx="119.984" cy="105.196" r="71.029" fill="#22f873"/>
    <circle cx="121.192" cy="106.546" r="71.029" fill="#23f873"/>
    <circle cx="122.4" cy="107.895" r="71.029" fill="#24f872"/>
    <circle cx="123.608" cy="109.245" r="71.029" fill="#25f872"/>
    <circle cx="124.816" cy="110.594" r="71.029" fill="#26f871"/>
    <circle cx="126.024" cy="111.944" r="71.029" fill="#27f871"/>
    <circle cx="127.232" cy="113.293" r="71.029" fill="#28f771"/>
    <circle cx="128.44" cy="114.643" r="71.029" fill="#29f770"/>
    <circle cx="129.648" cy="115.993" r="71.029" fill="#2af770"/>
    <circle cx="130.856" cy="117.342" r="71.029" fill="#2bf770"/>
    <circle cx="132.064" cy="118.692" r="71.029" fill="#2cf76f"/>
    <circle cx="133.272" cy="120.041" r="71.029" fill="#2df76f"/>
    <circle cx="134.481" cy="121.391" r="71.029" fill="#2ef76f"/>
    <circle cx="135.689" cy="122.74" r="71.029" fill="#2ff76e"/>
    <circle cx="136.897" cy="124.09" r="71.029" fill="#30f66e"/>
    <circle cx="138.105" cy="125.44" r="71.029" fill="#31f66e"/>
    <circle cx="139.313" cy="126.789" r="71.029" fill="#32f66d"/>
    <circle cx="140.521" cy="128.139" r="71.029" fill="#33f66d"/>
    <circle cx="141.729" cy="129.488" r="71.029" fill="#34f66d"/>
    <circle cx="142.937" cy="130.838" r="71.029" fill="#35f66c"/>
    <circle cx="144.145" cy="132.187" r="71.029" fill="#36f66c"/>
    <circle cx="145.353" cy="133.537" r="71.029" fill="#37f66b"/>
    <circle cx="146.561" cy="134.887" r="71.029" fill="#38f56b"/>
    <circle cx="147.769" cy="136.236" r="71.029" fill="#39f56b"/>
    <circle cx="148.978" cy="137.586" r="71.029" fill="#3af56a"/>
    <circle cx="150.186" cy="138.935" r="71.029" fill="#3bf56a"/>
    <circle cx="151.394" cy="140.285" r="71.029" fill="#3cf56a"/>
    <circle cx="152.602" cy="141.634" r="71.029" fill="#3df569"/>
    <circle cx="153.81" cy="142.984" r="71.029" fill="#3ef569"/>
    <circle cx="155.018" cy="144.334" r="71.029" fill="#3ff569"/>
    <circle cx="156.226" cy="145.683" r="71.029" fill="#40f468"/>
    <circle cx="157.434" cy="147.033" r="71.029" fill="#41f468"/>
    <circle cx="158.642" cy="148.382" r="71.029" fill="#42f468"/>
    <circle cx="159.85" cy="149.732" r="71.029" fill="#43f467"/>
    <circle cx="161.058" cy="151.081" r="71.029" fill="#44f467"/>
    <circle cx="162.267" cy="152.431" r="71.029" fill="#45f467"/>
    <circle cx="163.475" cy="153.781" r="71.029" fill="#46f466"/>
    <circle cx="164.683" cy="155.13" r="71.029" fill="#47f466"/>
    <circle cx="165.891" cy="156.48" r="71.029" fill="#48f365"/>
    <circle cx="167.099" cy="157.829" r="71.029" fill="#49f365"/>
    <circle cx="168.307" cy="159.179" r="71.029" fill="#4af365"/>
    <circle cx="169.515" cy="160.528" r="71.029" fill="#4bf364"/>
    <circle cx="170.723" cy="161.878" r="71.029" fill="#4cf364"/>
    <circle cx="171.931" cy="163.228" r="71.029" fill="#4df364"/>
    <circle cx="173.139" cy="164.577" r="71.029" fill="#4ef363"/>
    <circle cx="174.347" cy="165.927" r="71.029" fill="#4ff263"/>
    <circle cx="175.555" cy="167.276" r="71.029" fill="#50f263"/>
    <circle cx="176.764" cy="168.626" r="71.029" fill="#51f262"/>
    <circle cx="177.972" cy="169.975" r="71.029" fill="#52f262"/>
    <circle cx="179.18" cy="171.325" r="71.029" fill="#53f262"/>
    <circle cx="180.388" cy="172.675" r="71.029" fill="#54f261"/>
    <circle cx="181.596" cy="174.024" r="71.029" fill="#55f261"/>
    <circle cx="182.804" cy="175.374" r="71.029" fill="#56f261"/>
    <circle cx="184.012" cy="176.723" r="71.029" fill="#57f160"/>
    <circle cx="185.22" cy="178.073" r="71.029" fill="#58f160"/>
    <circle cx="186.428" cy="179.422" r="71.029" fill="#59f160"/>
    <circle cx="187.636" cy="180.772" r="71.029" fill="#5af15f"/>
    <circle cx="188.844" cy="182.122" r="71.029" fill="#5bf15f"/>
    <circle cx="190.053" cy="183.471" r="71.029" fill="#5cf15e"/>
    <circle cx="191.261" cy="184.821" r="71.029" fill="#5df15e"/>
    <circle cx="192.469" cy="186.17" r="71.029" fill="#5ef15e"/>
    <circle cx="193.677" cy="187.52" r="71.029" fill="#5ff05d"/>
    <circle cx="194.885" cy="188.87" r="71.029" fill="#60f05d"/>
    <circle cx="196.093" cy="190.219" r="71.029" fill="#61f05d"/>
    <circle cx="197.301" cy="191.569" r="71.029" fill="#62f05c"/>
    <circle cx="198.509" cy="192.918" r="71.029" fill="#63f05c"/>
    <circle cx="199.717" cy="194.268" r="71.029" fill="#64f05c"/>
    <circle cx="200.925" cy="195.617" r="71.029" fill="#65f05b"/>
    <circle cx="202.133" cy="196.967" r="71.029" fill="#66f05b"/>
    <circle cx="203.341" cy="198.317" r="71.029" fill="#67ef5b"/>
    <circle cx="204.55" cy="199.666" r="71.029" fill="#68ef5a"/>
    <circle cx="205.758" cy="201.016" r="71.029" fill="#69ef5a"/>
    <circle cx="206.966" cy="202.365" r="71.029" fill="#6aef5a"/>
    <circle cx="208.174" cy="203.715" r="71.029" fill="#6bef59"/>
    <circle cx="209.382" cy="205.064" r="71.029" fill="#6cef59"/>
    <circle cx="210.59" cy="206.414" r="71.029" fill="#6def58"/>
    <circle cx="211.798" cy="207.764" r="71.029" fill="#6eef58"/>
    <circle cx="213.006" cy="209.113" r="71.029" fill="#6fee58"/>
    <circle cx="214.214" cy="210.463" r="71.029" fill="#70ee57"/>
    <circle cx="215.422" cy="211.812" r="71.029" fill="#71ee57"/>
    <circle cx="216.63" cy="213.162" r="71.029" fill="#72ee57"/>
    <circle cx="217.838" cy="214.511" r="71.029" fill="#73ee56"/>
    <circle cx="219.047" cy="215.861" r="71.029" fill="#74ee56"/>
    <circle cx="220.255" cy="217.211" r="71.029" fill="#75ee56"/>
    <circle cx="221.463" cy="218.56" r="71.029" fill="#76ee55"/>
    <circle cx="222.671" cy="219.91" r="71.029" fill="#77ed55"/>
    <circle cx="223.879" cy="221.259" r="71.029" fill="#78ed55"/>
    <circle cx="225.087" cy="222.609" r="71.029" fill="#79ed54"/>
    <circle cx="226.295" cy="223.958" r="71.029" fill="#7aed54"/>
    <circle cx="227.503" cy="225.308" r="71.029" fill="#7bed54"/>
    <circle cx="228.711" cy="226.658" r="71.029" fill="#7ced53"/>
    <circle cx="229.919" cy="228.007" r="71.029" fill="#7ded53"/>
    <circle cx="231.127" cy="229.357" r="71.029" fill="#7eec52"/>
    <circle cx="232.336" cy="230.706" r="71.029" fill="#7fec52"/>
    <circle cx="233.544" cy="232.056" r="71.029" fill="#80ec52"/>
    <circle cx="234.752" cy="233.405" r="71.029" fill="#81ec51"/>
    <circle cx="235.96" cy="234.755" r="71.029" fill="#82ec51"/>
    <circle cx="237.168" cy="236.105" r="71.029" fill="#83ec51"/>
    <circle cx="238.376" cy="237.454" r="71.029" fill="#84ec50"/>
    <circle cx="239.584" cy="238.804" r="71.029" fill="#85ec50"/>
    <circle cx="240.792" cy="240.153" r="71.029" fill="#86eb50"/>
    <circle cx="242" cy="241.503" r="71.029" fill="#87eb4f"/>
    <circle cx="243.208" cy="242.852" r="71.029" fill="#88eb4f"/>
    <circle cx="244.416" cy="244.202" r="71.029" fill="#89eb4f"/>
    <circle cx="245.624" cy="245.552" r="71.029" fill="#8aeb4e"/>
    <circle cx="246.833" cy="246.901" r="71.029" fill="#8beb4e"/>
    <circle cx="248.041" cy="248.251" r="71.029" fill="#8ceb4e"/>
    <circle cx="249.249" cy="249.6" r="71.029" fill="#8deb4d"/>
    <circle cx="250.457" cy="250.95" r="71.029" fill="#8eea4d"/>
    <circle cx="251.665" cy="252.299" r="71.029" fill="#8fea4c"/>
    <circle cx="252.873" cy="253.649" r="71.029" fill="#90ea4c"/>
    <circle cx="254.081" cy="254.999" r="71.029" fill="#91ea4c"/>
    <circle cx="255.289" cy="256.348" r="71.029" fill="#92ea4b"/>
    <circle cx="256.497" cy="257.698" r="71.029" fill="#93ea4b"/>
    <circle cx="257.705" cy="259.047" r="71.029" fill="#94ea4b"/>
    <circle cx="258.913" cy="260.397" r="71.029" fill="#95ea4a"/>
    <circle cx="260.122" cy="261.746" r="71.029" fill="#96e94a"/>
    <circle cx="261.33" cy="263.096" r="71.029" fill="#97e94a"/>
    <circle cx="262.538" cy="264.446" r="71.029" fill="#98e949"/>
    <circle cx="263.746" cy="265.795" r="71.029" fill="#99e949"/>
    <circle cx="264.954" cy="267.145" r="71.029" fill="#9ae949"/>
    <circle cx="266.162" cy="268.494" r="71.029" fill="#9be948"/>
    <circle cx="267.37" cy="269.844" r="71.029" fill="#9ce948"/>
    <circle cx="268.578" cy="271.193" r="71.029" fill="#9de948"/>
    <circle cx="269.786" cy="272.543" r="71.029" fill="#9ee847"/>
    <circle cx="270.994" cy="273.893" r="71.029" fill="#9fe847"/>
    <circle cx="272.202" cy="275.242" r="71.029" fill="#a0e846"/>
    <circle cx="273.41" cy="276.592" r="71.029" fill="#a1e846"/>
    <circle cx="274.619" cy="277.941" r="71.029" fill="#a2e846"/>
    <circle cx="275.827" cy="279.291" r="71.029" fill="#a3e845"/>
    <circle cx="277.035" cy="280.641" r="71.029" fill="#a4e845"/>
    <circle cx="278.243" cy="281.99" r="71.029" fill="#a5e745"/>
    <circle cx="279.451" cy="283.34" r="71.029" fill="#a6e744"/>
    <circle cx="280.659" cy="284.689" r="71.029" fill="#a7e744"/>
    <circle cx="281.867" cy="286.039" r="71.029" fill="#a8e744"/>
    <circle cx="283.075" cy="287.388" r="71.029" fill="#a9e743"/>
    <circle cx="284.283" cy="288.738" r="71.029" fill="#aae743"/>
    <circle cx="285.491" cy="290.088" r="71.029" fill="#abe743"/>
    <circle cx="286.699" cy="291.437" r="71.029" fill="#ace742"/>
    <circle cx="287.907" cy="292.787" r="71.029" fill="#ade642"/>
    <circle cx="289.116" cy="294.136" r="71.029" fill="#aee642"/>
    <circle cx="290.324" cy="295.486" r="71.029" fill="#afe641"/>
    <circle cx="291.532" cy="296.835" r="71.029" fill="#b0e641"/>
    <circle cx="292.74" cy="298.185" r="71.029" fill="#b1e640"/>
    <circle cx="293.948" cy="299.535" r="71.029" fill="#b2e640"/>
    <circle cx="295.156" cy="300.884" r="71.029" fill="#b3e640"/>
    <circle cx="296.364" cy="302.234" r="71.029" fill="#b4e63f"/>
    <circle cx="297.572" cy="303.583" r="71.029" fill="#b5e53f"/>
    <circle cx="298.78" cy="304.933" r="71.029" fill="#b6e53f"/>
    <circle cx="299.988" cy="306.282" r="71.029" fill="#b7e53e"/>
    <circle cx="301.196" cy="307.632" r="71.029" fill="#b8e53e"/>
    <circle cx="302.405" cy="308.982" r="71.029" fill="#b9e53e"/>
    <circle cx="303.613" cy="310.331" r="71.029" fill="#bae53d"/>
    <circle cx="304.821" cy="311.681" r="71.029" fill="#bbe53d"/>
    <circle cx="306.029" cy="313.03" r="71.029" fill="#bce53d"/>
    <circle cx="307.237" cy="314.38" r="71.029" fill="#bde43c"/>
    <circle cx="308.445" cy="315.729" r="71.029" fill="#bee43c"/>
    <circle cx="309.653" cy="317.079" r="71.029" fill="#bfe43c"/>
    <circle cx="310.861" cy="318.429" r="71.029" fill="#c0e43b"/>
    <circle cx="312.069" cy="319.778" r="71.029" fill="#c1e43b"/>
    <circle cx="313.277" cy="321.128" r="71.029" fill="#c2e43a"/>
    <circle cx="314.485" cy="322.477" r="71.029" fill="#c3e43a"/>
    <circle cx="315.693" cy="323.827" r="71.029" fill="#c4e43a"/>
    <circle cx="316.902" cy="325.176" r="71.029" fill="#c5e339"/>
    <circle cx="318.11" cy="326.526" r="71.029" fill="#c6e339"/>
    <circle cx="319.318" cy="327.876" r="71.029" fill="#c7e339"/>
    <circle cx="320.526" cy="329.225" r="71.029" fill="#c8e338"/>
    <circle cx="321.734" cy="330.575" r="71.029" fill="#c9e338"/>
    <circle cx="322.942" cy="331.924" r="71.029" fill="#cae338"/>
    <circle cx="324.15" cy="333.274" r="71.029" fill="#cbe337"/>
    <circle cx="325.358" cy="334.623" r="71.029" fill="#cce337"/>
    <circle cx="326.566" cy="335.973" r="71.029" fill="#cde237"/>
    <circle cx="327.774" cy="337.323" r="71.029" fill="#cee236"/>
    <circle cx="328.982" cy="338.672" r="71.029" fill="#cfe236"/>
    <circle cx="330.19" cy="340.022" r="71.029" fill="#d0e236"/>
    <circle cx="331.399" cy="341.371" r="71.029" fill="#d1e235"/>
    <circle cx="332.607" cy="342.721" r="71.029" fill="#d2e235"/>
    <circle cx="333.815" cy="344.07" r="71.029" fill="#d3e235"/>
    <circle cx="335.023" cy="345.42" r="71.029" fill="#d4e134"/>
    <circle cx="336.231" cy="346.77" r="71.029" fill="#d5e134"/>
    <circle cx="337.439" cy="348.119" r="71.029" fill="#d6e133"/>
    <circle cx="338.647" cy="349.469" r="71.029" fill="#d7e133"/>
    <circle cx="339.855" cy="350.818" r="71.029" fill="#d8e133"/>
    <circle cx="341.063" cy="352.168" r="71.029" fill="#d9e132"/>
    <circle cx="342.271" cy="353.517" r="71.029" fill="#dae132"/>
    <circle cx="343.479" cy="354.867" r="71.029" fill="#dbe132"/>
    <circle cx="344.688" cy="356.217" r="71.029" fill="#dce031"/>
    <circle cx="345.896" cy="357.566" r="71.029" fill="#dde031"/>
    <circle cx="347.104" cy="358.916" r="71.029" fill="#dee031"/>
    <circle cx="348.312" cy="360.265" r="71.029" fill="#dfe030"/>
    <circle cx="349.52" cy="361.615" r="71.029" fill="#e0e030"/>
    <circle cx="350.728" cy="362.964" r="71.029" fill="#e1e030"/>
    <circle cx="351.936" cy="364.314" r="71.029" fill="#e2e02f"/>
    <circle cx="353.144" cy="365.664" r="71.029" fill="#e3e02f"/>
    <circle cx="354.352" cy="367.013" r="71.029" fill="#e4df2f"/>
    <circle cx="355.56" cy="368.363" r="71.029" fill="#e5df2e"/>
    <circle cx="356.768" cy="369.712" r="71.029" fill="#e6df2e"/>
    <circle cx="357.976" cy="371.062" r="71.029" fill="#e7df2d"/>
    <circle cx="359.185" cy="372.412" r="71.029" fill="#e8df2d"/>
    <circle cx="360.393" cy="373.761" r="71.029" fill="#e9df2d"/>
    <circle cx="361.601" cy="375.111" r="71.029" fill="#eadf2c"/>
    <circle cx="362.809" cy="376.46" r="71.029" fill="#ebdf2c"/>
    <circle cx="364.017" cy="377.81" r="71.029" fill="#ecde2c"/>
    <circle cx="365.225" cy="379.159" r="71.029" fill="#edde2b"/>
    <circle cx="366.433" cy="380.509" r="71.029" fill="#eede2b"/>
    <circle cx="367.641" cy="381.859" r="71.029" fill="#efde2b"/>
    <circle cx="368.849" cy="383.208" r="71.029" fill="#f0de2a"/>
    <circle cx="370.057" cy="384.558" r="71.029" fill="#f1de2a"/>
    <circle cx="371.265" cy="385.907" r="71.029" fill="#f2de2a"/>
    <circle cx="372.474" cy="387.257" r="71.029" fill="#f3de29"/>
    <circle cx="373.682" cy="388.606" r="71.029" fill="#f4dd29"/>
    <circle cx="374.89" cy="389.956" r="71.029" fill="#f5dd29"/>
    <circle cx="376.098" cy="391.306" r="71.029" fill="#f6dd28"/>
    <circle cx="377.306" cy="392.655" r="71.029" fill="#f7dd28"/>
    <circle cx="378.514" cy="394.005" r="71.029" fill="#f8dd27"/>
    <circle cx="379.722" cy="395.354" r="71.029" fill="#f9dd27"/>
    <circle cx="380.93" cy="396.704" r="71.029" fill="#fadd27"/>
    <circle cx="382.138" cy="398.053" r="71.029" fill="#fbdd26"/>
    <circle cx="383.346" cy="399.403" r="71.029" fill="#fcdc26"/>
    <circle cx="384.554" cy="400.753" r="71.029" fill="#fddc26"/>
    <circle cx="385.762" cy="402.102" r="71.029" fill="#fedc25"/>
    <circle cx="386.971" cy="403.452" r="71.029" fill="#ffdc25"/>
    <circle cx="385.438" cy="401.74" r="71.029" fill="#ffdb25"/>
    <circle cx="383.906" cy="400.029" r="71.029" fill="#ffda26"/>
    <circle cx="382.374" cy="398.317" r="71.029" fill="#ffd926"/>
    <circle cx="380.842" cy="396.606" r="71.029" fill="#ffd826"/>
    <circle cx="379.31" cy="394.894" r="71.029" fill="#ffd726"/>
    <circle cx="377.778" cy="393.183" r="71.029" fill="#ffd627"/>
    <circle cx="376.246" cy="391.471" r="71.029" fill="#ffd527"/>
    <circle cx="374.714" cy="389.76" r="71.029" fill="#ffd427"/>
    <circle cx="373.182" cy="388.048" r="71.029" fill="#ffd327"/>
    <circle cx="371.65" cy="386.337" r="71.029" fill="#ffd228"/>
    <circle cx="370.118" cy="384.626" r="71.029" fill="#ffd128"/>
    <circle cx="368.586" cy="382.914" r="71.029" fill="#ffd028"/>
    <circle cx="367.054" cy="381.203" r="71.029" fill="#ffcf28"/>
    <circle cx="365.522" cy="379.491" r="71.029" fill="#ffce29"/>
    <circle cx="363.99" cy="377.78" r="71.029" fill="#ffcd29"/>
    <circle cx="362.458" cy="376.068" r="71.029" fill="#ffcc29"/>
    <circle cx="360.926" cy="374.357" r="71.029" fill="#ffcb29"/>
    <circle cx="359.394" cy="372.645" r="71.029" fill="#ffca2a"/>
    <circle cx="357.862" cy="370.934" r="71.029" fill="#ffc92a"/>
    <circle cx="356.33" cy="369.222" r="71.029" fill="#ffc82a"/>
    <circle cx="354.798" cy="367.511" r="71.029" fill="#ffc72a"/>
    <circle cx="353.266" cy="365.799" r="71.029" fill="#ffc62b"/>
    <circle cx="351.734" cy="364.088" r="71.029" fill="#ffc52b"/>
    <circle cx="350.202" cy="362.376" r="71.029" fill="#ffc42b"/>
    <circle cx="348.669" cy="360.665" r="71.029" fill="#ffc32b"/>
    <circle cx="347.137" cy="358.953" r="71.029" fill="#ffc22c"/>
    <circle cx="345.605" cy="357.242" r="71.029" fill="#ffc12c"/>
    <circle cx="344.073" cy="355.531" r="71.029" fill="#ffc02c"/>
    <circle cx="342.541" cy="353.819" r="71.029" fill="#ffbf2c"/>
    <circle cx="341.009" cy="352.108" r="71.029" fill="#ffbe2d"/>
    <circle cx="339.477" cy="350.396" r="71.029" fill="#ffbd2d"/>
    <circle cx="337.945" cy="348.685" r="71.029" fill="#ffbc2d"/>
    <circle cx="336.413" cy="346.973" r="71.029" fill="#ffbb2d"/>
    <circle cx="334.881" cy="345.262" r="71.029" fill="#ffba2e"/>
    <circle cx="333.349" cy="343.55" r="71.029" fill="#ffb92e"/>
    <circle cx="331.817" cy="341.839" r="71.029" fill="#ffb82e"/>
    <circle cx="330.285" cy="340.127" r="71.029" fill="#ffb72e"/>
    <circle cx="328.753" cy="338.416" r="71.029" fill="#ffb62f"/>
    <circle cx="327.221" cy="336.704" r="71.029" fill="#ffb52f"/>
    <circle cx="325.689" cy="334.993" r="71.029" fill="#ffb42f"/>
    <circle cx="324.157" cy="333.281" r="71.029" fill="#ffb32f"/>
    <circle cx="322.625" cy="331.57" r="71.029" fill="#ffb230"/>
    <circle cx="321.093" cy="329.858" r="71.029" fill="#ffb130"/>
    <circle cx="319.561" cy="328.147" r="71.029" fill="#ffb030"/>
    <circle cx="318.029" cy="326.436" r="71.029" fill="#ffaf30"/>
    <circle cx="316.497" cy="324.724" r="71.029" fill="#ffae31"/>
    <circle cx="314.965" cy="323.013" r="71.029" fill="#ffad31"/>
    <circle cx="313.433" cy="321.301" r="71.029" fill="#ffac31"/>
    <circle cx="311.9" cy="319.59" r="71.029" fill="#ffab31"/>
    <circle cx="310.368" cy="317.878" r="71.029" fill="#ffaa32"/>
    <circle cx="308.836" cy="316.167" r="71.029" fill="#ffa932"/>
    <circle cx="307.304" cy="314.455" r="71.029" fill="#ffa832"/>
    <circle cx="305.772" cy="312.744" r="71.029" fill="#ffa732"/>
    <circle cx="304.24" cy="311.032" r="71.029" fill="#ffa633"/>
    <circle cx="302.708" cy="309.321" r="71.029" fill="#ffa533"/>
    <circle cx="301.176" cy="307.609" r="71.029" fill="#ffa433"/>
    <circle cx="299.644" cy="305.898" r="71.029" fill="#ffa333"/>
    <circle cx="298.112" cy="304.186" r="71.029" fill="#ffa234"/>
    <circle cx="296.58" cy="302.475" r="71.029" fill="#ffa134"/>
    <circle cx="295.048" cy="300.763" r="71.029" fill="#ffa034"/>
    <circle cx="293.516" cy="299.052" r="71.029" fill="#ff9f34"/>
    <circle cx="291.984" cy="297.341" r="71.029" fill="#ff9e35"/>
    <circle cx="290.452" cy="295.629" r="71.029" fill="#ff9d35"/>
    <circle cx="288.92" cy="293.918" r="71.029" fill="#ff9c35"/>
    <circle cx="287.388" cy="292.206" r="71.029" fill="#ff9b35"/>
    <circle cx="285.856" cy="290.495" r="71.029" fill="#ff9a36"/>
    <circle cx="284.324" cy="288.783" r="71.029" fill="#ff9936"/>
    <circle cx="282.792" cy="287.072" r="71.029" fill="#ff9836"/>
    <circle cx="281.26" cy="285.36" r="71.029" fill="#ff9736"/>
    <circle cx="279.728" cy="283.649" r="71.029" fill="#ff9637"/>
    <circle cx="278.196" cy="281.937" r="71.029" fill="#ff9537"/>
    <circle cx="276.663" cy="280.226" r="71.029" fill="#ff9437"/>
    <circle cx="275.131" cy="278.514" r="71.029" fill="#ff9337"/>
    <circle cx="273.599" cy="276.803" r="71.029" fill="#ff9238"/>
    <circle cx="272.067" cy="275.091" r="71.029" fill="#ff9138"/>
    <circle cx="270.535" cy="273.38" r="71.029" fill="#ff9038"/>
    <circle cx="269.003" cy="271.668" r="71.029" fill="#ff8f38"/>
    <circle cx="267.471" cy="269.957" r="71.029" fill="#ff8e39"/>
    <circle cx="265.939" cy="268.246" r="71.029" fill="#ff8d39"/>
    <circle cx="264.407" cy="266.534" r="71.029" fill="#ff8c39"/>
    <circle cx="262.875" cy="264.823" r="71.029" fill="#ff8b39"/>
    <circle cx="261.343" cy="263.111" r="71.029" fill="#ff8a3a"/>
    <circle cx="259.811" cy="261.4" r="71.029" fill="#ff893a"/>
    <circle cx="258.279" cy="259.688" r="71.029" fill="#ff883a"/>
    <circle cx="256.747" cy="257.977" r="71.029" fill="#ff873a"/>
    <circle cx="255.215" cy="256.265" r="71.029" fill="#ff863b"/>
    <circle cx="253.683" cy="254.554" r="71.029" fill="#ff853b"/>
    <circle cx="252.151" cy="252.842" r="71.029" fill="#ff843b"/>
    <circle cx="250.619" cy="251.131" r="71.029" fill="#ff833b"/>
    <circle cx="250.619" cy="249.419" r="71.029" fill="#ff823c"/>
    <circle cx="252.151" cy="247.708" r="71.029" fill="#ff813c"/>
    <circle cx="253.683" cy="245.996" r="71.029" fill="#ff803c"/>
    <circle cx="255.215" cy="244.285" r="71.029" fill="#ff7f3c"/>
    <circle cx="256.747" cy="242.573" r="71.029" fill="#ff7e3d"/>
    <circle cx="258.279" cy="240.862" r="71.029" fill="#ff7d3d"/>
    <circle cx="259.811" cy="239.151" r="71.029" fill="#ff7c3d"/>
    <circle cx="261.343" cy="237.439" r="71.029" fill="#ff7b3d"/>
    <circle cx="262.875" cy="235.728" r="71.029" fill="#ff7a3e"/>
    <circle cx="264.407" cy="234.016" r="71.029" fill="#ff793e"/>
    <circle cx="265.939" cy="232.305" r="71.029" fill="#ff783e"/>
    <circle cx="267.471" cy="230.593" r="71.029" fill="#ff773e"/>
    <circle cx="269.003" cy="228.882" r="71.029" fill="#ff763f"/>
    <circle cx="270.535" cy="227.17" r="71.029" fill="#ff753f"/>
    <circle cx="272.067" cy="225.459" r="71.029" fill="#ff743f"/>
    <circle cx="273.599" cy="223.747" r="71.029" fill="#ff733f"/>
    <circle cx="275.131" cy="222.036" r="71.029" fill="#ff7240"/>
    <circle cx="276.663" cy="220.324" r="71.029" fill="#ff7140"/>
    <circle cx="278.196" cy="218.613" r="71.029" fill="#ff7040"/>
    <circle cx="279.728" cy="216.901" r="71.029" fill="#ff6f40"/>
    <circle cx="281.26" cy="215.19" r="71.029" fill="#ff6e41"/>
    <circle cx="282.792" cy="213.478" r="71.029" fill="#ff6d41"/>
    <circle cx="284.324" cy="211.767" r="71.029" fill="#ff6c41"/>
    <circle cx="285.856" cy="210.056" r="71.029" fill="#ff6b41"/>
    <circle cx="287.388" cy="208.344" r="71.029" fill="#ff6a42"/>
    <circle cx="288.92" cy="206.633" r="71.029" fill="#ff6942"/>
    <circle cx="290.452" cy="204.921" r="71.029" fill="#ff6842"/>
    <circle cx="291.984" cy="203.21" r="71.029" fill="#ff6742"/>
    <circle cx="293.516" cy="201.498" r="71.029" fill="#ff6643"/>
    <circle cx="295.048" cy="199.787" r="71.029" fill="#ff6543"/>
    <circle cx="296.58" cy="198.075" r="71.029" fill="#ff6443"/>
    <circle cx="298.112" cy="196.364" r="71.029" fill="#ff6343"/>
    <circle cx="299.644" cy="194.652" r="71.029" fill="#ff6244"/>
    <circle cx="301.176" cy="192.941" r="71.029" fill="#ff6144"/>
    <circle cx="302.708" cy="191.229" r="71.029" fill="#ff6044"/>
    <circle cx="304.24" cy="189.518" r="71.029" fill="#ff5f44"/>
    <circle cx="305.772" cy="187.806" r="71.029" fill="#ff5e45"/>
    <circle cx="307.304" cy="186.095" r="71.029" fill="#ff5d45"/>
    <circle cx="308.836" cy="184.383" r="71.029" fill="#ff5c45"/>
    <circle cx="310.368" cy="182.672" r="71.029" fill="#ff5b45"/>
    <circle cx="311.9" cy="180.961" r="71.029" fill="#ff5a46"/>
    <circle cx="313.433" cy="179.249" r="71.029" fill="#ff5946"/>
    <circle cx="314.965" cy="177.538" r="71.029" fill="#ff5846"/>
    <circle cx="316.497" cy="175.826" r="71.029" fill="#ff5746"/>
    <circle cx="318.029" cy="174.115" r="71.029" fill="#ff5647"/>
    <circle cx="319.561" cy="172.403" r="71.029" fill="#ff5547"/>
    <circle cx="321.093" cy="170.692" r="71.029" fill="#ff5447"/>
    <circle cx="322.625" cy="168.98" r="71.029" fill="#ff5347"/>
    <circle cx="324.157" cy="167.269" r="71.029" fill="#ff5248"/>
    <circle cx="325.689" cy="165.557" r="71.029" fill="#ff5148"/>
    <circle cx="327.221" cy="163.846" r="71.029" fill="#ff5048"/>
    <circle cx="328.753" cy="162.134" r="71.029" fill="#ff4f48"/>
    <circle cx="330.285" cy="160.423" r="71.029" fill="#ff4e49"/>
    <circle cx="331.817" cy="158.711" r="71.029" fill="#ff4d49"/>
    <circle cx="333.349" cy="157" r="71.029" fill="#ff4c49"/>
    <circle cx="334.881" cy="155.288" r="71.029" fill="#ff4b49"/>
    <circle cx="336.413" cy="153.577" r="71.029" fill="#ff4a4a"/>
    <circle cx="337.945" cy="151.866" r="71.029" fill="#ff494a"/>
    <circle cx="339.477" cy="150.154" r="71.029" fill="#ff484a"/>
    <circle cx="341.009" cy="148.443" r="71.029" fill="#ff474a"/>
    <circle cx="342.541" cy="146.731" r="71.029" fill="#ff464b"/>
    <circle cx="344.073" cy="145.02" r="71.029" fill="#ff454b"/>
    <circle cx="345.605" cy="143.308" r="71.029" fill="#ff444b"/>
    <circle cx="347.137" cy="141.597" r="71.029" fill="#ff434b"/>
    <circle cx="348.669" cy="139.885" r="71.029" fill="#ff424c"/>
    <circle cx="350.202" cy="138.174" r="71.029" fill="#ff414c"/>
    <circle cx="351.734" cy="136.462" r="71.029" fill="#ff404c"/>
    <circle cx="353.266" cy="134.751" r="71.029" fill="#ff3f4c"/>
    <circle cx="354.798" cy="133.039" r="71.029" fill="#ff3e4d"/>
    <circle cx="356.33" cy="131.328" r="71.029" fill="#ff3d4d"/>
    <circle cx="357.862" cy="129.616" r="71.029" fill="#ff3c4d"/>
    <circle cx="359.394" cy="127.905" r="71.029" fill="#ff3b4d"/>
    <circle cx="360.926" cy="126.194" r="71.029" fill="#ff3a4e"/>
    <circle cx="362.458" cy="124.482" r="71.029" fill="#ff394e"/>
    <circle cx="363.99" cy="122.771" r="71.029" fill="#ff384e"/>
    <circle cx="365.522" cy="121.059" r="71.029" fill="#ff374e"/>
    <circle cx="367.054" cy="119.348" r="71.029" fill="#ff364f"/>
    <circle cx="368.586" cy="117.636" r="71.029" fill="#ff354f"/>
    <circle cx="370.118" cy="115.925" r="71.029" fill="#ff344f"/>
    <circle cx="371.65" cy="114.213" r="71.029" fill="#ff334f"/>
    <circle cx="373.182" cy="112.502" r="71.029" fill="#ff3250"/>
    <circle cx="374.714" cy="110.79" r="71.029" fill="#ff3150"/>
    <circle cx="376.246" cy="109.079" r="71.029" fill="#ff3050"/>
    <circle cx="377.778" cy="107.367" r="71.029" fill="#ff2f50"/>
    <circle cx="379.31" cy="105.656" r="71.029" fill="#ff2e51"/>
    <circle cx="380.842" cy="103.944" r="71.029" fill="#ff2d51"/>
    <circle cx="382.374" cy="102.233" r="71.029" fill="#ff2c51"/>
    <circle cx="383.906" cy="100.521" r="71.029" fill="#ff2b51"/>
    <circle cx="385.438" cy="98.81" r="71.029" fill="#ff2a52"/>
    <circle cx="386.971" cy="97.099" r="71.029" fill="#ff2952"/>
</svg>
