<svg version="1.1" id="_x30_" xmlns="http://www.w3.org/2000/svg" xmlns:xlink="http://www.w3.org/1999/xlink" x="0px" y="0px"
	 viewBox="0 0 612 792" style="enable-background:new 0 0 612 792;" xml:space="preserve">
<style type="text/css">
</style>
<polygon  fill="currentColor" points="305.9,416.3 530.1,543.6 434.8,599.4 391.3,573.1 441.7,544.4 306,467.3 169.1,546 305.6,623.5 
	345,601 388.5,627.2 305.8,674.6 81.7,543.6 305.9,416.3 "/>
<path fill="currentColor" d="M547.5,253.6L305.9,117L64.3,253.6l-2,1.1v0.2v260.9l44.3-23.3v-69.7l199.3-112.7l199.3,112.7v69.7l44.3,23.3
	V397v0V255v-0.2L547.5,253.6z M505.2,372L305.9,259.3L106.6,372v-89.4l201-113.7l197.5,111.7V372z"/>
</svg>
